<svg version="1.1" id="Layer_1" xmlns="http://www.w3.org/2000/svg" xmlns:xlink="http://www.w3.org/1999/xlink" x="0px" y="0px"
	 width="100%" viewBox="0 0 400 400" enable-background="new 0 0 400 400" xml:space="preserve">
<path fill="#FFFFFF" opacity="0" stroke="none"
	d="
M182.000000,401.000000 
	C121.689377,401.000000 61.378761,401.000000 1.034070,401.000000 
	C1.034070,267.739594 1.034070,134.479156 1.034070,1.109362 
	C134.210144,1.109362 267.420410,1.109362 401.000000,1.109362 
	C401.000000,61.020390 401.000000,121.041534 400.669006,181.284729 
	C399.559906,175.822128 399.056854,170.083557 397.955078,164.462357 
	C393.695160,142.728668 386.872253,121.916176 375.037689,102.608536 
	C374.587830,101.349251 374.343384,100.336060 373.778259,99.554855 
	C366.457916,89.435844 359.631195,78.891533 351.565826,69.401360 
	C345.185822,61.894295 337.270813,55.691803 329.885040,48.613483 
	C318.367279,38.045490 305.493927,29.948523 291.925446,23.052513 
	C268.874146,11.337000 244.331299,3.908270 218.572830,2.263521 
	C197.612793,0.925165 176.571106,1.546243 155.863358,6.779154 
	C136.319962,11.717824 117.598808,18.561604 100.410980,29.014835 
	C91.163101,34.639179 82.725121,41.595222 73.625450,48.107002 
	C62.875427,59.205727 51.996277,69.781425 42.133053,81.232216 
	C36.531723,87.735123 32.593674,95.670715 27.628931,103.159042 
	C19.117960,117.511864 12.620766,132.463181 8.958432,148.393402 
	C6.033814,161.114716 4.371728,174.126297 2.095794,187.474503 
	C2.028590,195.906555 1.485769,203.916351 2.131918,211.829056 
	C2.983802,222.261185 4.769105,232.617096 6.102012,243.405228 
	C6.371674,245.235275 6.659721,246.674118 7.018122,248.095215 
	C12.299306,269.035583 19.899473,288.997650 32.094765,307.392029 
	C38.891487,316.689117 44.920235,326.221161 52.309994,334.544922 
	C64.962975,348.797089 79.383232,361.159698 95.700470,371.247620 
	C116.939941,384.378723 139.779999,393.263611 164.261871,397.982452 
	C170.149719,399.117340 176.085999,400.000854 182.000000,401.000000 
z"/>
<path fill="#C7BD9A" opacity="1.000000" stroke="none"
	d="
M2.149245,187.009033 
	C4.371728,174.126297 6.033814,161.114716 8.958432,148.393402 
	C12.620766,132.463181 19.117960,117.511864 28.008434,103.206985 
	C30.751171,104.026474 32.822178,105.786659 34.924965,105.825478 
	C43.048412,105.975449 51.189590,105.725571 59.308376,105.313614 
	C62.957718,105.128441 67.110092,102.780502 70.092247,103.907166 
	C77.477676,106.697426 84.333946,107.278343 91.488647,103.839935 
	C92.268425,103.465187 93.376373,103.545654 94.282913,103.701370 
	C98.418587,104.411751 102.509850,105.497467 106.670341,105.906250 
	C109.540855,106.188293 111.618729,106.219009 112.361664,109.892929 
	C112.687065,111.502090 115.430756,113.516876 117.209213,113.656631 
	C118.651733,113.769989 121.401787,111.527267 121.632591,110.030464 
	C122.260529,105.958145 124.694534,105.957191 127.713005,105.975517 
	C138.202835,106.039177 148.699509,106.208290 159.180481,105.896736 
	C163.329102,105.773407 167.438583,104.466293 171.577011,103.763817 
	C172.491867,103.608536 173.612808,103.406067 174.369431,103.776161 
	C181.505203,107.266602 188.560242,107.264236 195.688461,103.750160 
	C196.435287,103.381996 197.693512,103.440323 198.459793,103.817787 
	C205.422638,107.247643 212.318588,107.124626 219.336548,103.946480 
	C220.344391,103.490074 221.811981,103.829269 223.014420,104.066162 
	C225.853943,104.625534 228.651855,105.854515 231.484344,105.910179 
	C242.636307,106.129372 253.799149,106.167679 264.949036,105.901047 
	C268.436188,105.817650 271.877533,104.449387 275.376312,103.902679 
	C276.707825,103.694618 278.186676,103.977287 279.515930,104.339165 
	C280.753326,104.676033 281.875031,105.885918 283.058167,105.901260 
	C290.711517,106.000565 298.424438,106.413269 306.000061,105.611160 
	C310.022003,105.185310 311.702087,105.165321 312.350128,109.653069 
	C312.586731,111.291389 315.604218,113.509254 317.457336,113.613808 
	C318.867737,113.693382 320.917084,111.080070 321.802521,109.241272 
	C322.582916,107.620552 322.145111,105.413239 322.285095,102.689377 
	C324.514679,103.410652 326.139679,103.971817 327.786407,104.459595 
	C329.636414,105.007614 331.538818,106.025826 333.361969,105.914597 
	C347.280975,105.065392 361.521729,108.599281 375.094055,102.962448 
	C386.872253,121.916176 393.695160,142.728668 397.955078,164.462357 
	C399.056854,170.083557 399.559906,175.822128 400.669006,181.753387 
	C401.000000,183.388885 401.000000,184.777786 400.531372,186.583344 
	C396.570435,187.000000 393.073700,187.111801 389.586853,186.973724 
	C384.384369,186.767715 379.307953,187.458893 374.126007,184.627396 
	C371.209442,183.033722 366.469879,184.534531 362.597778,185.014038 
	C359.894653,185.348785 357.306000,186.610550 354.602936,186.941711 
	C347.927246,187.759506 341.224304,188.449631 334.511841,188.813400 
	C332.582977,188.917938 330.377411,188.083893 328.664764,187.064941 
	C325.879456,185.407776 323.316101,183.961807 319.098175,186.564484 
	C324.968445,189.668289 328.956085,193.476578 326.669373,199.994965 
	C324.450287,197.521591 322.468933,195.244080 320.546265,192.918015 
	C310.078644,180.254105 299.661255,167.548309 289.128113,154.939209 
	C287.574310,153.079147 285.570862,150.366699 283.646912,150.254639 
	C274.943115,149.747681 266.193115,150.033005 257.459778,150.033005 
	C257.237152,150.431503 257.014496,150.830002 256.791870,151.228485 
	C265.780396,161.524734 274.768921,171.820969 283.860077,182.432037 
	C285.291565,184.172394 286.620392,185.597885 287.929688,187.371399 
	C284.273315,192.144180 280.636536,196.568970 276.932648,200.624664 
	C274.035767,195.944427 274.929474,189.304062 278.676727,185.856949 
	C279.239166,185.339508 279.748474,183.761826 279.526764,183.575943 
	C278.755829,182.929672 277.528534,182.188446 276.704803,182.396057 
	C275.502869,182.699036 274.393219,183.676834 273.430542,184.568161 
	C268.689789,188.957489 263.059967,186.611374 257.779266,186.550507 
	C257.178467,186.543564 256.231964,184.568024 256.073608,183.418793 
	C255.173828,176.888855 255.238754,176.879913 249.212494,177.550049 
	C249.122757,168.199951 249.122757,159.312973 249.122757,149.474442 
	C241.105072,150.021576 233.958054,150.509308 226.446640,151.099304 
	C224.728912,154.251663 223.693939,157.278290 226.799561,160.467346 
	C226.820633,166.277954 226.772507,171.626389 226.359238,176.982422 
	C224.756378,177.170227 223.518661,177.350418 222.280945,177.530609 
	C222.241211,177.957840 222.201462,178.385056 222.161713,178.812286 
	C223.675507,179.546982 225.189285,180.281693 226.771866,181.409897 
	C226.798401,182.863815 226.756149,183.924240 226.379425,185.041885 
	C223.813690,186.242371 222.456360,185.838379 220.673721,183.665192 
	C214.197540,175.770126 207.224594,168.284912 200.618607,160.492889 
	C197.492615,156.805679 194.773132,152.773834 191.642929,148.595718 
	C190.145187,148.300034 187.929626,147.351120 185.825226,147.554214 
	C181.516769,147.970047 177.268005,149.004395 172.623825,149.840637 
	C171.506119,149.859848 170.759232,149.822479 169.953659,149.440536 
	C167.251907,148.524017 164.608871,147.952072 161.965820,147.380142 
	C161.466980,147.853119 160.968140,148.326096 160.469299,148.799088 
	C161.256790,152.534317 162.044281,156.269562 162.886688,160.470093 
	C162.898560,168.960510 162.855499,176.985611 162.426544,185.017212 
	C155.818710,187.553757 149.612106,188.340576 143.618103,184.195938 
	C145.062851,187.017838 146.271942,189.379456 147.481018,191.741058 
	C144.842026,191.741058 142.203033,191.741058 139.205780,191.741058 
	C139.399689,192.735199 139.624344,193.792343 139.810226,194.856232 
	C140.638474,199.596619 139.672836,200.588242 134.673630,200.372116 
	C133.721390,200.330963 132.750916,200.712112 131.861313,200.549530 
	C132.938568,197.793182 133.943375,195.385712 135.220856,192.773575 
	C142.644241,178.610199 149.794922,164.651474 157.309982,149.981476 
	C149.549576,149.981476 142.751572,150.129944 135.965256,149.912949 
	C132.992004,149.817886 131.456940,151.002441 130.194214,153.523224 
	C125.734390,162.426453 121.727875,171.645599 116.360992,179.979599 
	C111.414368,187.660995 114.408478,193.233124 118.642265,199.325119 
	C119.763748,200.938797 120.092896,203.103134 120.453476,204.963638 
	C118.105095,202.817917 116.220139,200.571991 114.032158,198.675674 
	C112.240021,197.122421 110.086975,195.985611 108.093925,194.664200 
	C108.345352,200.528000 113.670113,204.381943 110.551697,209.950211 
	C109.686119,208.981689 109.024742,208.225510 108.576324,207.359116 
	C99.351730,189.536301 90.202240,171.674149 80.861412,153.912613 
	C80.000870,152.276291 78.018150,150.245560 76.442192,150.142303 
	C69.993286,149.719696 63.497578,150.079422 57.024269,149.928833 
	C54.296150,149.865387 54.552094,151.243546 54.670731,153.047089 
	C54.011097,153.402969 53.332066,153.874298 53.391361,154.001541 
	C56.841438,161.404846 60.295231,168.808472 63.958160,176.106934 
	C64.279076,176.746353 66.010880,176.677689 67.067581,176.974091 
	C67.047813,177.010254 67.059845,176.929245 67.038727,177.363831 
	C67.011337,179.532471 67.005058,181.266541 66.592209,183.001312 
	C57.113831,186.310776 47.798218,187.981201 38.129303,186.964310 
	C36.199932,186.761398 34.339314,185.953171 32.410709,185.684647 
	C28.256826,185.106247 23.173471,182.972656 20.103792,184.585037 
	C14.076124,187.751099 8.137493,186.508667 2.149245,187.009033 
M322.840668,149.944046 
	C314.811371,150.133530 313.930939,158.232559 308.527527,161.997406 
	C313.532410,168.002777 318.127533,173.516495 322.993195,179.354813 
	C327.467255,174.201050 331.497650,169.617599 335.460754,164.976669 
	C339.498260,160.248657 343.469543,155.464050 348.109131,149.943512 
	C339.289490,149.943512 331.528839,149.943512 322.840668,149.944046 
z"/>
<path fill="#BFB38B" opacity="1.000000" stroke="none" 
	d="
M182.468658,401.000000 
	C176.085999,400.000854 170.149719,399.117340 164.261871,397.982452 
	C139.779999,393.263611 116.939941,384.378723 95.700470,371.247620 
	C79.383232,361.159698 64.962975,348.797089 52.309994,334.544922 
	C44.920235,326.221161 38.891487,316.689117 32.384949,307.082184 
	C36.488941,306.313019 40.458618,306.068024 44.427765,306.076416 
	C45.449116,306.078583 47.118938,306.635376 47.386345,307.350433 
	C49.521690,313.060211 53.384518,310.885620 57.258396,309.946136 
	C63.434734,308.448303 69.670479,306.362793 75.925362,306.197174 
	C88.434631,305.865936 100.974335,306.948029 113.500610,306.927246 
	C128.447266,306.902466 143.392563,306.102386 158.339294,306.072540 
	C170.453445,306.048370 182.567474,306.827515 194.684296,306.932556 
	C200.800186,306.985596 206.919327,306.168518 213.042480,306.063385 
	C216.654053,306.001312 220.277115,306.794098 223.893585,306.781921 
	C228.017975,306.767944 232.140579,306.118347 236.264420,306.112976 
	C237.460876,306.111420 238.651001,307.387238 239.858200,308.051758 
	C241.665283,309.046387 243.451599,310.784943 245.304962,310.865326 
	C252.785431,311.189819 260.288239,310.986053 267.782715,311.007111 
	C270.615814,311.015045 273.391144,311.411377 274.570099,307.589233 
	C274.833984,306.733795 277.640228,306.346985 279.288544,306.310516 
	C281.575134,306.260071 283.872284,306.951630 286.167114,306.965393 
	C298.404388,307.038818 310.643982,307.119995 322.879547,306.957184 
	C330.833801,306.851318 338.780823,306.263519 346.735382,306.060913 
	C348.273712,306.021790 350.960571,306.425293 351.196960,307.206024 
	C352.666687,312.060638 356.438721,310.793823 359.763214,311.029602 
	C362.556061,311.227631 365.330566,311.684113 367.955872,312.334045 
	C361.940979,320.185699 356.565186,328.171570 350.129883,335.185303 
	C334.615875,352.093719 317.078461,366.467010 296.621155,377.317780 
	C279.600189,386.345886 261.889648,393.088959 243.078217,396.993988 
	C235.757111,398.513794 228.361618,399.675293 221.000000,401.000000 
	C208.312439,401.000000 195.624878,401.000000 182.468658,401.000000 
z"/>
<path fill="#C3BA94" opacity="1.000000" stroke="none" 
	d="
M326.934204,200.168411 
	C328.956085,193.476578 324.968445,189.668289 319.098175,186.564484 
	C323.316101,183.961807 325.879456,185.407776 328.664764,187.064941 
	C330.377411,188.083893 332.582977,188.917938 334.511841,188.813400 
	C341.224304,188.449631 347.927246,187.759506 354.602936,186.941711 
	C357.306000,186.610550 359.894653,185.348785 362.597778,185.014038 
	C366.469879,184.534531 371.209442,183.033722 374.126007,184.627396 
	C379.307953,187.458893 384.384369,186.767715 389.586853,186.973724 
	C393.073700,187.111801 396.570435,187.000000 400.531372,187.000000 
	C401.000000,198.020889 401.000000,209.041794 400.664673,220.773529 
	C399.255737,228.001266 398.182190,234.518143 396.713928,241.065170 
	C391.482391,243.542526 387.014343,244.064697 381.877930,240.937515 
	C379.473175,239.473480 375.118073,239.579651 372.330139,240.689880 
	C364.513672,243.802689 357.186798,245.386719 349.888184,239.654495 
	C348.776917,238.781708 347.005768,237.983810 345.733002,238.214966 
	C340.331207,239.196014 334.791687,240.030884 329.713074,241.985840 
	C325.615082,243.563324 322.780579,243.367722 320.517609,239.318558 
	C320.236176,238.815002 319.552917,238.536026 319.086639,238.176682 
	C312.922607,244.032806 312.922607,244.032806 307.629974,240.288361 
	C303.358582,241.418854 300.398865,242.726715 297.378571,242.886032 
	C292.046326,243.167343 286.384277,244.229492 282.076965,239.243896 
	C281.549652,238.633545 279.025604,239.538651 277.520416,240.028717 
	C274.833191,240.903580 272.279022,242.252808 269.550446,242.912292 
	C267.660767,243.369019 265.569366,243.063080 263.572388,242.986313 
	C260.896637,242.883469 259.269318,243.543793 258.802795,246.704102 
	C258.617035,247.962433 256.330292,248.910629 255.006607,249.606308 
	C255.672287,246.702118 256.612701,244.225342 256.918854,241.672516 
	C257.297546,238.515167 255.154175,237.648117 252.475479,238.119492 
	C250.156311,238.527603 248.535004,239.398270 249.583359,242.484512 
	C250.404922,244.903137 250.420502,247.595535 250.507812,249.980469 
	C246.255051,245.358948 241.008804,245.125092 235.569611,245.048538 
	C232.189072,245.000977 230.805954,245.899963 230.976044,249.542480 
	C231.247238,255.349701 230.998795,261.181213 230.587341,266.992096 
	C226.867325,266.600311 228.565430,264.588074 228.839157,262.942566 
	C229.697357,257.783325 228.127548,256.469696 223.382614,258.252411 
	C222.814575,258.465820 222.172699,258.482727 221.561722,258.591339 
	C220.287170,251.012375 220.287170,251.012375 216.092834,249.602661 
	C216.405777,246.148483 215.136978,244.689514 211.995544,244.667160 
	C208.836029,238.485840 206.700287,238.157196 199.713379,242.069641 
	C200.119888,244.608994 200.491959,246.933167 200.570831,249.045151 
	C196.060684,244.167847 190.605911,244.028473 185.330154,245.696899 
	C179.674103,247.485580 178.383667,252.656998 177.600677,258.000488 
	C175.153946,258.334747 173.103668,258.668579 171.010040,258.621704 
	C170.651169,257.059631 170.335632,255.878311 169.964432,254.372208 
	C169.577866,252.975082 169.246994,251.902710 168.963043,250.478714 
	C170.711716,247.421722 169.045059,245.678619 166.797638,245.690842 
	C162.532669,245.714035 158.272278,246.579712 153.922348,246.832428 
	C153.971405,241.218979 151.492737,239.709106 146.716599,242.112869 
	C145.330505,242.810455 143.767242,243.506546 142.263031,243.558167 
	C135.849640,243.778198 129.422211,243.936615 123.012169,243.732422 
	C120.522209,243.653107 118.094330,242.199753 115.586639,241.990829 
	C108.824318,241.427475 102.034576,241.190109 95.253586,240.868515 
	C95.063278,240.859512 94.892097,241.415787 94.639008,241.616394 
	C90.926880,244.558990 88.300499,244.355637 85.411331,240.567398 
	C84.556419,239.446426 84.427078,237.772095 83.965240,236.351349 
	C79.232285,244.239365 76.542511,244.651154 68.701859,240.333221 
	C63.444504,244.151779 51.072491,244.151062 44.903992,240.331833 
	C39.351704,244.063797 35.872044,244.065964 28.600037,240.341995 
	C23.602934,244.096130 19.224171,244.088470 13.388696,240.663895 
	C10.679800,241.540649 8.416457,242.273209 6.153115,243.005768 
	C4.769105,232.617096 2.983802,222.261185 2.131918,211.829056 
	C1.485769,203.916351 2.028590,195.906555 2.095794,187.474503 
	C8.137493,186.508667 14.076124,187.751099 20.103792,184.585037 
	C23.173471,182.972656 28.256826,185.106247 32.410709,185.684647 
	C34.339314,185.953171 36.199932,186.761398 38.129303,186.964310 
	C47.798218,187.981201 57.113831,186.310776 66.622803,183.333542 
	C68.041260,185.109665 69.022545,186.554245 70.002380,188.417816 
	C69.226303,191.460846 68.223442,194.045151 67.757065,196.722900 
	C67.444679,198.516373 67.893829,200.442474 68.002228,202.309235 
	C69.469910,201.982819 70.924988,201.569534 72.408783,201.354156 
	C73.925026,201.134079 75.469444,201.108185 77.059937,201.351440 
	C78.137245,202.078445 79.156166,202.451294 80.163643,202.839539 
	C80.152206,202.854935 80.148918,202.893143 80.100006,203.302368 
	C82.061081,208.602463 84.003723,213.523727 86.176880,218.340988 
	C86.415321,218.869537 87.977417,218.800949 89.112457,219.293259 
	C90.856598,221.815033 92.413895,224.052856 94.002808,226.679688 
	C94.665955,227.695312 95.282036,228.846573 95.931465,228.865707 
	C101.230034,229.021805 106.539192,229.073196 111.832878,228.856720 
	C112.599388,228.825378 113.300743,227.200928 114.436981,226.239960 
	C115.662971,226.113068 116.484253,226.059875 117.412766,225.913605 
	C117.702919,225.556503 117.667885,225.315231 117.268585,224.764740 
	C116.712570,223.304184 116.302879,222.175629 116.181068,220.827515 
	C117.691681,217.153046 116.078484,215.571869 112.595078,214.893585 
	C112.178322,214.167130 111.983078,213.627090 112.079201,212.897980 
	C111.871796,211.837357 111.373024,210.965805 110.873871,210.079895 
	C110.873482,210.065552 110.855080,210.111237 110.855080,210.111237 
	C113.670113,204.381943 108.345352,200.528000 108.093925,194.664200 
	C110.086975,195.985611 112.240021,197.122421 114.032158,198.675674 
	C116.220139,200.571991 118.105095,202.817917 120.617409,205.240845 
	C121.498039,206.320984 121.882370,207.072906 121.950333,208.063690 
	C121.765724,210.891647 121.897484,213.480759 122.029236,216.069855 
	C122.444435,216.126709 122.859634,216.183578 123.274834,216.240433 
	C123.850227,214.833221 124.425621,213.426010 125.246857,211.842163 
	C126.234154,210.738678 126.975609,209.811859 128.087280,208.892914 
	C129.924026,207.413269 131.390549,205.925751 132.857071,204.438217 
	C131.993683,203.954010 131.130280,203.469818 130.249786,202.729370 
	C130.228790,202.130707 130.224899,201.788315 130.480301,201.345917 
	C131.089355,201.130081 131.439102,201.014252 131.788849,200.898407 
	C132.750916,200.712112 133.721390,200.330963 134.673630,200.372116 
	C139.672836,200.588242 140.638474,199.596619 139.810226,194.856232 
	C139.624344,193.792343 139.399689,192.735199 139.205780,191.741058 
	C142.203033,191.741058 144.842026,191.741058 147.481018,191.741058 
	C146.271942,189.379456 145.062851,187.017838 143.618103,184.195938 
	C149.612106,188.340576 155.818710,187.553757 162.492920,185.481323 
	C162.916870,198.976624 162.888550,212.014313 162.662415,225.206970 
	C162.948166,225.649490 163.431747,225.937042 164.382874,226.176865 
	C169.225189,226.167923 173.599976,226.206711 178.029648,226.512634 
	C178.731262,226.600021 179.377975,226.420273 180.458405,226.178619 
	C184.050354,226.477966 185.262299,225.233887 185.204910,221.914886 
	C185.073044,214.288040 185.317169,206.654709 185.750916,198.886597 
	C186.646500,195.540207 187.199860,192.331223 187.917587,188.169006 
	C189.545090,190.193100 190.305756,192.132217 191.500153,192.452179 
	C196.593796,193.816635 199.279922,198.092072 202.670700,201.363052 
	C205.645508,204.232712 207.470200,208.278564 210.380463,211.236664 
	C212.426361,213.316208 215.441132,214.442551 218.249237,216.234436 
	C219.792252,217.954147 221.063004,219.478668 222.438156,220.902313 
	C224.121429,222.644913 225.783661,225.610352 227.644455,225.764832 
	C234.637955,226.345474 241.708542,225.997620 249.302231,225.997620 
	C249.302231,209.461349 249.302231,193.737259 249.302231,178.013168 
	C255.238754,176.879913 255.173828,176.888855 256.073608,183.418793 
	C256.231964,184.568024 257.178467,186.543564 257.779266,186.550507 
	C263.059967,186.611374 268.689789,188.957489 273.430542,184.568161 
	C274.393219,183.676834 275.502869,182.699036 276.704803,182.396057 
	C277.528534,182.188446 278.755829,182.929672 279.526764,183.575943 
	C279.748474,183.761826 279.239166,185.339508 278.676727,185.856949 
	C274.929474,189.304062 274.035767,195.944427 276.757904,200.792725 
	C276.260101,201.615540 275.869934,201.901184 275.075745,202.166550 
	C274.149750,203.175446 273.627808,204.204605 273.064941,205.432678 
	C273.024048,205.631607 272.828064,205.987350 272.441650,205.989929 
	C267.649323,206.424591 265.437073,209.235260 264.823303,215.260071 
	C262.068848,218.775253 259.480560,221.999939 256.191193,226.098083 
	C264.446045,226.098083 271.264465,225.792755 278.040283,226.198425 
	C283.109772,226.501968 287.134094,225.484879 290.159668,220.907471 
	C291.750153,220.139603 293.143677,219.546265 294.146881,218.557129 
	C296.490479,216.246399 298.499603,213.577347 300.966156,211.421814 
	C301.730011,210.754288 304.204315,210.705276 304.743591,211.344650 
	C307.494720,214.606339 309.893799,218.168350 312.368378,221.659073 
	C315.965271,226.733093 320.041931,230.157913 327.082062,229.155243 
	C332.620819,228.366409 338.368164,229.145477 344.008331,228.897278 
	C345.539093,228.829926 348.032776,227.820358 348.293243,226.790298 
	C348.740356,225.022202 348.245850,222.625275 347.293335,220.989120 
	C345.991791,218.753418 343.162750,217.250671 342.315369,214.945892 
	C341.221771,211.971451 339.653503,212.696884 337.490356,212.991989 
	C336.815460,212.257401 336.382874,211.664276 336.087982,210.759552 
	C336.467041,207.404297 336.859924,204.360992 336.867371,201.316757 
	C336.869965,200.255234 335.921173,199.191376 335.406891,198.128571 
	C334.605316,198.918488 333.842621,199.753479 332.992401,200.486954 
	C331.912292,201.418716 330.761230,202.268158 329.392761,202.994736 
	C328.407867,201.947067 327.671021,201.057739 326.934204,200.168411 
M266.963440,191.612549 
	C261.032837,191.296448 263.045715,196.576355 261.406647,199.624146 
	C263.940247,199.357117 266.351135,198.722626 267.655212,197.162827 
	C268.472656,196.185043 267.626190,193.816177 266.963440,191.612549 
M194.295578,200.433472 
	C194.010788,200.705276 193.725998,200.977081 193.441208,201.248886 
	C193.553894,201.366760 193.758392,201.593338 193.766083,201.586838 
	C194.066452,201.333176 194.348907,201.058258 194.295578,200.433472 
z"/>
<path fill="#FFFFFF" opacity="0" stroke="none"
	d="
M397.108643,241.035019 
	C398.182190,234.518143 399.255737,228.001266 400.664673,221.242188 
	C401.000000,280.927032 401.000000,340.854034 401.000000,401.000000 
	C341.312622,401.000000 281.624969,401.000000 221.468658,401.000000 
	C228.361618,399.675293 235.757111,398.513794 243.078217,396.993988 
	C261.889648,393.088959 279.600189,386.345886 296.621155,377.317780 
	C317.078461,366.467010 334.615875,352.093719 350.129883,335.185303 
	C356.565186,328.171570 361.940979,320.185699 368.236511,312.145782 
	C374.831818,299.626984 381.815582,287.941467 386.899109,275.480713 
	C391.400513,264.446869 393.787964,252.550568 397.108643,241.035019 
z"/>
<path fill="#C1B791" opacity="1.000000" stroke="none" 
	d="
M396.713959,241.065170 
	C393.787964,252.550568 391.400513,264.446869 386.899109,275.480713 
	C381.815582,287.941467 374.831818,299.626984 368.393829,311.837891 
	C365.330566,311.684113 362.556061,311.227631 359.763214,311.029602 
	C356.438721,310.793823 352.666687,312.060638 351.196960,307.206024 
	C350.960571,306.425293 348.273712,306.021790 346.735382,306.060913 
	C338.780823,306.263519 330.833801,306.851318 322.879547,306.957184 
	C310.643982,307.119995 298.404388,307.038818 286.167114,306.965393 
	C283.872284,306.951630 281.575134,306.260071 279.288544,306.310516 
	C277.640228,306.346985 274.833984,306.733795 274.570099,307.589233 
	C273.391144,311.411377 270.615814,311.015045 267.782715,311.007111 
	C260.288239,310.986053 252.785431,311.189819 245.304962,310.865326 
	C243.451599,310.784943 241.665283,309.046387 239.858200,308.051758 
	C238.651001,307.387238 237.460876,306.111420 236.264420,306.112976 
	C232.140579,306.118347 228.017975,306.767944 223.893585,306.781921 
	C220.277115,306.794098 216.654053,306.001312 213.042480,306.063385 
	C206.919327,306.168518 200.800186,306.985596 194.684296,306.932556 
	C182.567474,306.827515 170.453445,306.048370 158.339294,306.072540 
	C143.392563,306.102386 128.447266,306.902466 113.500610,306.927246 
	C100.974335,306.948029 88.434631,305.865936 75.925362,306.197174 
	C69.670479,306.362793 63.434734,308.448303 57.258396,309.946136 
	C53.384518,310.885620 49.521690,313.060211 47.386345,307.350433 
	C47.118938,306.635376 45.449116,306.078583 44.427765,306.076416 
	C40.458618,306.068024 36.488941,306.313019 32.229279,306.773560 
	C19.899473,288.997650 12.299306,269.035583 7.018122,248.095215 
	C6.659721,246.674118 6.371674,245.235275 6.102012,243.405228 
	C8.416457,242.273209 10.679800,241.540649 13.388696,240.663895 
	C19.224171,244.088470 23.602934,244.096130 28.600037,240.341995 
	C35.872044,244.065964 39.351704,244.063797 44.903992,240.331833 
	C51.072491,244.151062 63.444504,244.151779 68.701859,240.333221 
	C76.542511,244.651154 79.232285,244.239365 83.965240,236.351349 
	C84.427078,237.772095 84.556419,239.446426 85.411331,240.567398 
	C88.300499,244.355637 90.926880,244.558990 94.639008,241.616394 
	C94.892097,241.415787 95.063278,240.859512 95.253586,240.868515 
	C102.034576,241.190109 108.824318,241.427475 115.586639,241.990829 
	C118.094330,242.199753 120.522209,243.653107 123.012169,243.732422 
	C129.422211,243.936615 135.849640,243.778198 142.263031,243.558167 
	C143.767242,243.506546 145.330505,242.810455 146.716599,242.112869 
	C151.492737,239.709106 153.971405,241.218979 153.677063,247.064758 
	C152.677399,248.793793 151.619202,249.933090 151.032135,251.278015 
	C148.911301,256.136658 149.634445,260.768280 152.837677,264.895996 
	C155.370041,268.159180 163.354492,269.450378 168.248077,267.654114 
	C172.871262,265.957092 170.086319,261.875183 171.053391,259.002411 
	C173.103668,258.668579 175.153946,258.334747 177.622498,258.371643 
	C180.814926,267.808441 190.035400,271.464478 197.597458,266.496735 
	C202.778992,263.092865 203.877686,257.294556 200.864029,249.257324 
	C200.491959,246.933167 200.119888,244.608994 199.713379,242.069641 
	C206.700287,238.157196 208.836029,238.485840 211.619797,244.737396 
	C210.562881,247.315201 209.478989,249.421600 209.296616,251.603363 
	C209.110275,253.832458 210.036606,256.131042 210.081161,258.406952 
	C210.303375,269.759521 208.345062,267.558228 219.898819,267.992249 
	C224.155838,268.152161 224.619019,266.212555 223.553635,262.903259 
	C215.928757,261.433228 215.928757,261.433228 216.363739,255.767303 
	C216.438568,254.736023 216.292694,253.891556 216.102188,252.668091 
	C216.090317,251.528351 216.123062,250.767593 216.155823,250.006851 
	C220.287170,251.012375 220.287170,251.012375 221.561722,258.591339 
	C222.172699,258.482727 222.814575,258.465820 223.382614,258.252411 
	C228.127548,256.469696 229.697357,257.783325 228.839157,262.942566 
	C228.565430,264.588074 226.867325,266.600311 230.786926,267.206635 
	C231.912155,267.636047 232.455078,267.840546 233.011566,268.434448 
	C235.511734,272.183899 237.900131,271.914948 240.384552,267.988678 
	C246.724915,267.093842 251.100296,264.432098 252.535797,257.913208 
	C253.586594,255.219559 254.293304,252.609787 255.000000,250.000000 
	C256.330292,248.910629 258.617035,247.962433 258.802795,246.704102 
	C259.269318,243.543793 260.896637,242.883469 263.572388,242.986313 
	C265.569366,243.063080 267.660767,243.369019 269.550446,242.912292 
	C272.279022,242.252808 274.833191,240.903580 277.520416,240.028717 
	C279.025604,239.538651 281.549652,238.633545 282.076965,239.243896 
	C286.384277,244.229492 292.046326,243.167343 297.378571,242.886032 
	C300.398865,242.726715 303.358582,241.418854 307.629974,240.288361 
	C312.922607,244.032806 312.922607,244.032806 319.086639,238.176682 
	C319.552917,238.536026 320.236176,238.815002 320.517609,239.318558 
	C322.780579,243.367722 325.615082,243.563324 329.713074,241.985840 
	C334.791687,240.030884 340.331207,239.196014 345.733002,238.214966 
	C347.005768,237.983810 348.776917,238.781708 349.888184,239.654495 
	C357.186798,245.386719 364.513672,243.802689 372.330139,240.689880 
	C375.118073,239.579651 379.473175,239.473480 381.877930,240.937515 
	C387.014343,244.064697 391.482391,243.542526 396.713959,241.065170 
z"/>
<path fill="#CBC19D" opacity="1.000000" stroke="none" 
	d="
M375.037689,102.608536 
	C361.521729,108.599281 347.280975,105.065392 333.361969,105.914597 
	C331.538818,106.025826 329.636414,105.007614 327.786407,104.459595 
	C326.139679,103.971817 324.514679,103.410652 322.285095,102.689377 
	C322.145111,105.413239 322.582916,107.620552 321.802521,109.241272 
	C320.917084,111.080070 318.867737,113.693382 317.457336,113.613808 
	C315.604218,113.509254 312.586731,111.291389 312.350128,109.653069 
	C311.702087,105.165321 310.022003,105.185310 306.000061,105.611160 
	C298.424438,106.413269 290.711517,106.000565 283.058167,105.901260 
	C281.875031,105.885918 280.753326,104.676033 279.515930,104.339165 
	C278.186676,103.977287 276.707825,103.694618 275.376312,103.902679 
	C271.877533,104.449387 268.436188,105.817650 264.949036,105.901047 
	C253.799149,106.167679 242.636307,106.129372 231.484344,105.910179 
	C228.651855,105.854515 225.853943,104.625534 223.014420,104.066162 
	C221.811981,103.829269 220.344391,103.490074 219.336548,103.946480 
	C212.318588,107.124626 205.422638,107.247643 198.459793,103.817787 
	C197.693512,103.440323 196.435287,103.381996 195.688461,103.750160 
	C188.560242,107.264236 181.505203,107.266602 174.369431,103.776161 
	C173.612808,103.406067 172.491867,103.608536 171.577011,103.763817 
	C167.438583,104.466293 163.329102,105.773407 159.180481,105.896736 
	C148.699509,106.208290 138.202835,106.039177 127.713005,105.975517 
	C124.694534,105.957191 122.260529,105.958145 121.632591,110.030464 
	C121.401787,111.527267 118.651733,113.769989 117.209213,113.656631 
	C115.430756,113.516876 112.687065,111.502090 112.361664,109.892929 
	C111.618729,106.219009 109.540855,106.188293 106.670341,105.906250 
	C102.509850,105.497467 98.418587,104.411751 94.282913,103.701370 
	C93.376373,103.545654 92.268425,103.465187 91.488647,103.839935 
	C84.333946,107.278343 77.477676,106.697426 70.092247,103.907166 
	C67.110092,102.780502 62.957718,105.128441 59.308376,105.313614 
	C51.189590,105.725571 43.048412,105.975449 34.924965,105.825478 
	C32.822178,105.786659 30.751171,104.026474 28.286064,103.009048 
	C32.593674,95.670715 36.531723,87.735123 42.133053,81.232216 
	C51.996277,69.781425 62.875427,59.205727 73.984772,48.267487 
	C76.806961,49.711853 81.004990,47.835125 81.212357,52.765396 
	C81.273056,54.208530 83.734787,55.550678 85.096024,56.939110 
	C86.396652,55.486645 87.628784,53.964359 89.017738,52.601948 
	C90.327477,51.317234 91.713737,49.440327 93.233971,49.263271 
	C94.348312,49.133488 96.544716,51.158672 96.836540,52.526783 
	C97.532532,55.789761 99.185799,57.086666 102.323326,57.005695 
	C103.986923,56.962765 105.654724,56.944653 107.316826,57.010757 
	C110.619019,57.142094 112.529465,55.978813 113.182472,52.384003 
	C113.420174,51.075420 115.615242,49.268322 116.938583,49.250275 
	C118.272514,49.232082 120.610313,51.003345 120.800766,52.251190 
	C121.403206,56.198349 123.614563,57.058338 127.053703,57.027992 
	C136.375412,56.945724 145.698837,56.944553 155.020508,57.028358 
	C158.497299,57.059612 160.630341,56.098099 161.208603,52.176872 
	C161.388824,50.954769 163.704041,49.360680 165.158661,49.229275 
	C166.335876,49.122921 168.677200,50.855114 168.788162,51.946095 
	C169.220062,56.192951 171.593109,57.076900 175.257416,57.034138 
	C184.245682,56.929245 193.240402,56.831966 202.223740,57.067131 
	C207.099197,57.194763 209.494812,55.506435 209.016190,50.436146 
	C208.756866,47.689144 209.754105,45.481831 212.844147,46.102592 
	C216.441025,46.825176 220.048203,47.937771 223.331787,49.536526 
	C224.464005,50.087791 224.270782,52.936314 225.348785,54.138367 
	C226.526825,55.451977 228.457184,56.832626 230.092209,56.873291 
	C240.074341,57.121540 250.073975,57.201298 260.046143,56.800064 
	C261.749084,56.731544 264.256805,54.340584 264.780396,52.550831 
	C265.552917,49.910259 266.708954,48.481361 269.135712,49.147694 
	C270.614258,49.553665 271.795807,51.239956 272.976715,52.478924 
	C274.323090,53.891514 275.520386,55.446175 276.782471,56.939098 
	C278.190735,55.424767 280.462494,54.096863 280.837616,52.359459 
	C281.782257,47.984077 286.203979,48.049629 287.033417,49.499443 
	C289.465729,53.750942 293.964020,53.387348 297.160858,55.609367 
	C301.109558,58.353989 303.630981,57.121372 305.134369,52.473347 
	C305.590668,51.062626 307.420258,49.532589 308.902710,49.150261 
	C311.088348,48.586582 313.530304,49.085312 315.856171,48.979622 
	C318.872345,48.842560 320.911774,49.342468 321.222107,53.134777 
	C321.333527,54.496326 323.649750,56.651619 324.976990,56.664497 
	C326.294464,56.677280 327.893311,54.624352 328.880157,53.150234 
	C329.652924,51.995922 329.679413,50.341961 330.037476,48.909981 
	C337.270813,55.691803 345.185822,61.894295 351.565826,69.401360 
	C359.631195,78.891533 366.457916,89.435844 373.778259,99.554855 
	C374.343384,100.336060 374.587830,101.349251 375.037689,102.608536 
z"/>
<path fill="#CDC5A1" opacity="1.000000" stroke="none" 
	d="
M329.885071,48.613487 
	C329.679413,50.341961 329.652924,51.995922 328.880157,53.150234 
	C327.893311,54.624352 326.294464,56.677280 324.976990,56.664497 
	C323.649750,56.651619 321.333527,54.496326 321.222107,53.134777 
	C320.911774,49.342468 318.872345,48.842560 315.856171,48.979622 
	C313.530304,49.085312 311.088348,48.586582 308.902710,49.150261 
	C307.420258,49.532589 305.590668,51.062626 305.134369,52.473347 
	C303.630981,57.121372 301.109558,58.353989 297.160858,55.609367 
	C293.964020,53.387348 289.465729,53.750942 287.033417,49.499443 
	C286.203979,48.049629 281.782257,47.984077 280.837616,52.359459 
	C280.462494,54.096863 278.190735,55.424767 276.782471,56.939098 
	C275.520386,55.446175 274.323090,53.891514 272.976715,52.478924 
	C271.795807,51.239956 270.614258,49.553665 269.135712,49.147694 
	C266.708954,48.481361 265.552917,49.910259 264.780396,52.550831 
	C264.256805,54.340584 261.749084,56.731544 260.046143,56.800064 
	C250.073975,57.201298 240.074341,57.121540 230.092209,56.873291 
	C228.457184,56.832626 226.526825,55.451977 225.348785,54.138367 
	C224.270782,52.936314 224.464005,50.087791 223.331787,49.536526 
	C220.048203,47.937771 216.441025,46.825176 212.844147,46.102592 
	C209.754105,45.481831 208.756866,47.689144 209.016190,50.436146 
	C209.494812,55.506435 207.099197,57.194763 202.223740,57.067131 
	C193.240402,56.831966 184.245682,56.929245 175.257416,57.034138 
	C171.593109,57.076900 169.220062,56.192951 168.788162,51.946095 
	C168.677200,50.855114 166.335876,49.122921 165.158661,49.229275 
	C163.704041,49.360680 161.388824,50.954769 161.208603,52.176872 
	C160.630341,56.098099 158.497299,57.059612 155.020508,57.028358 
	C145.698837,56.944553 136.375412,56.945724 127.053703,57.027992 
	C123.614563,57.058338 121.403206,56.198349 120.800766,52.251190 
	C120.610313,51.003345 118.272514,49.232082 116.938583,49.250275 
	C115.615242,49.268322 113.420174,51.075420 113.182472,52.384003 
	C112.529465,55.978813 110.619019,57.142094 107.316826,57.010757 
	C105.654724,56.944653 103.986923,56.962765 102.323326,57.005695 
	C99.185799,57.086666 97.532532,55.789761 96.836540,52.526783 
	C96.544716,51.158672 94.348312,49.133488 93.233971,49.263271 
	C91.713737,49.440327 90.327477,51.317234 89.017738,52.601948 
	C87.628784,53.964359 86.396652,55.486645 85.096024,56.939110 
	C83.734787,55.550678 81.273056,54.208530 81.212357,52.765396 
	C81.004990,47.835125 76.806961,49.711853 74.281029,48.110882 
	C82.725121,41.595222 91.163101,34.639179 100.410980,29.014835 
	C117.598808,18.561604 136.319962,11.717824 155.863358,6.779154 
	C176.571106,1.546243 197.612793,0.925165 218.572830,2.263521 
	C244.331299,3.908270 268.874146,11.337000 291.925446,23.052513 
	C305.493927,29.948523 318.367279,38.045490 329.885071,48.613487 
M195.242142,48.998985 
	C196.463760,48.736378 197.685379,48.473774 198.906998,48.211170 
	C198.837173,47.718384 198.767349,47.225601 198.697510,46.732815 
	C194.881012,46.732815 191.064499,46.732815 187.247986,46.732815 
	C187.228714,47.346481 187.209442,47.960148 187.190170,48.573814 
	C189.575363,48.715824 191.960541,48.857834 195.242142,48.998985 
M150.077881,48.719620 
	C149.948624,47.874027 149.819366,47.028435 149.690125,46.182846 
	C148.892929,46.491375 148.095734,46.799908 147.298538,47.108437 
	C147.987686,47.708782 148.676819,48.309128 150.077881,48.719620 
z"/>
<path fill="#FEFEFB" opacity="1.000000" stroke="none" 
	d="
M177.974762,226.245483 
	C173.599976,226.206711 169.225189,226.167923 164.278839,225.923218 
	C163.424927,225.495544 163.142578,225.273773 162.860229,225.052002 
	C162.888550,212.014313 162.916870,198.976624 162.878815,185.474823 
	C162.855499,176.985611 162.898560,168.960510 162.952774,160.023407 
	C163.154831,148.973236 162.233047,150.458313 170.012360,149.785095 
	C170.759232,149.822479 171.506119,149.859848 173.086334,149.913055 
	C177.744980,149.956375 181.607422,149.676804 185.380798,150.133438 
	C187.447083,150.383484 189.951492,151.372482 191.252869,152.890350 
	C201.184570,164.474136 210.857071,176.279922 220.640091,187.991684 
	C222.340714,190.027573 224.182419,191.945618 226.713913,194.756287 
	C226.713913,190.554291 226.713913,187.769470 226.713913,184.984650 
	C226.756149,183.924240 226.798401,182.863815 226.859589,181.011322 
	C226.827148,179.137756 226.775772,178.056290 226.724380,176.974823 
	C226.772507,171.626389 226.820633,166.277954 226.882462,160.022980 
	C226.867798,156.409973 226.839417,153.703506 226.811035,150.997040 
	C233.958054,150.509308 241.105072,150.021576 249.122757,149.474442 
	C249.122757,159.312973 249.122757,168.199951 249.212494,177.550049 
	C249.302231,193.737259 249.302231,209.461349 249.302231,225.997620 
	C241.708542,225.997620 234.637955,226.345474 227.644455,225.764832 
	C225.783661,225.610352 224.121429,222.644913 222.438156,220.902313 
	C221.063004,219.478668 219.792252,217.954147 218.191162,215.896240 
	C207.376816,202.571701 196.846527,189.825287 186.316223,177.078857 
	C186.013702,177.312988 185.711197,177.547119 185.408676,177.781265 
	C185.408676,184.862167 185.408676,191.943085 185.408691,199.024002 
	C185.317169,206.654709 185.073044,214.288040 185.204910,221.914886 
	C185.262299,225.233887 184.050354,226.477966 180.119202,226.103592 
	C178.889114,226.142151 178.431946,226.193817 177.974762,226.245483 
z"/>
<path fill="#FEFDFA" opacity="1.000000" stroke="none" 
	d="
M275.479736,202.186798 
	C275.869934,201.901184 276.260101,201.615540 276.825012,201.161835 
	C280.636536,196.568970 284.273315,192.144180 288.218323,187.121704 
	C288.632965,184.853333 288.739380,183.182632 288.858459,181.312683 
	C286.668945,181.658005 285.213196,181.887604 283.757446,182.117203 
	C274.768921,171.820969 265.780396,161.524734 256.791870,151.228485 
	C257.014496,150.830002 257.237152,150.431503 257.459778,150.033005 
	C266.193115,150.033005 274.943115,149.747681 283.646912,150.254639 
	C285.570862,150.366699 287.574310,153.079147 289.128113,154.939209 
	C299.661255,167.548309 310.078644,180.254105 320.546265,192.918015 
	C322.468933,195.244080 324.450287,197.521591 326.669373,199.994965 
	C327.671021,201.057739 328.407867,201.947067 329.517029,203.317963 
	C331.909698,206.223389 333.929993,208.647263 335.950287,211.071152 
	C336.382874,211.664276 336.815460,212.257401 337.608826,213.315399 
	C340.901672,217.641403 343.833740,221.502548 347.292694,226.057526 
	C339.638428,226.057526 333.125793,225.661957 326.685455,226.174606 
	C320.853973,226.638794 317.038177,224.552750 313.759552,219.868729 
	C310.299561,214.925552 306.143311,210.469727 301.810425,205.218292 
	C297.404663,210.964554 293.595001,215.933350 289.785309,220.902145 
	C287.134094,225.484879 283.109772,226.501968 278.040283,226.198425 
	C271.264465,225.792755 264.446045,226.098083 256.191193,226.098083 
	C259.480560,221.999939 262.068848,218.775253 265.125793,215.120377 
	C268.005615,211.789246 270.416840,208.888290 272.828064,205.987335 
	C272.828064,205.987350 273.024048,205.631607 273.345642,205.256927 
	C274.271393,203.983749 274.875580,203.085281 275.479736,202.186798 
z"/>
<path fill="#FEFDF9" opacity="1.000000" stroke="none" 
	d="
M111.787842,213.087051 
	C111.983078,213.627090 112.178322,214.167130 112.655945,215.234421 
	C113.923271,217.523468 114.908226,219.285263 115.893181,221.047058 
	C116.302879,222.175629 116.712570,223.304184 117.195107,224.986267 
	C117.267944,225.539780 117.305527,226.006699 117.305527,226.006699 
	C116.484253,226.059875 115.662971,226.113068 113.973183,226.143066 
	C106.726837,226.176819 100.349007,226.233765 93.971176,226.290695 
	C92.413895,224.052856 90.856598,221.815033 89.094986,218.934082 
	C85.976746,213.158340 83.062836,208.025742 80.148926,202.893143 
	C80.148918,202.893143 80.152206,202.854935 80.151230,202.477463 
	C75.786789,193.709747 71.423317,185.319489 67.059845,176.929245 
	C67.059845,176.929245 67.047813,177.010254 67.023132,176.617645 
	C62.997585,168.484009 58.996723,160.742981 54.995865,153.001968 
	C54.552094,151.243546 54.296150,149.865387 57.024269,149.928833 
	C63.497578,150.079422 69.993286,149.719696 76.442192,150.142303 
	C78.018150,150.245560 80.000870,152.276291 80.861412,153.912613 
	C90.202240,171.674149 99.351730,189.536301 108.576324,207.359116 
	C109.024742,208.225510 109.686119,208.981689 110.551697,209.950211 
	C110.855080,210.111237 110.873482,210.065552 110.879257,210.406433 
	C111.185966,211.527222 111.486900,212.307129 111.787842,213.087051 
z"/>
<path fill="#FEFDFA" opacity="1.000000" stroke="none" 
	d="
M130.220993,201.445908 
	C130.224899,201.788315 130.228790,202.130707 130.090759,203.025879 
	C129.263687,204.713776 128.578522,205.848938 127.536987,206.993073 
	C125.803223,207.327484 124.425819,207.652924 122.854446,207.932556 
	C122.660477,207.886749 122.266693,207.824829 122.266693,207.824829 
	C121.882370,207.072906 121.498039,206.320984 120.949783,205.291840 
	C120.092896,203.103134 119.763748,200.938797 118.642265,199.325119 
	C114.408478,193.233124 111.414368,187.660995 116.360992,179.979599 
	C121.727875,171.645599 125.734390,162.426453 130.194214,153.523224 
	C131.456940,151.002441 132.992004,149.817886 135.965256,149.912949 
	C142.751572,150.129944 149.549576,149.981476 157.309982,149.981476 
	C149.794922,164.651474 142.644241,178.610199 134.841431,192.786148 
	C129.383209,194.180267 129.919296,197.868179 130.220993,201.445908 
z"/>
<path fill="#FDFCF7" opacity="1.000000" stroke="none" 
	d="
M323.304443,149.943787 
	C331.528839,149.943512 339.289490,149.943512 348.109131,149.943512 
	C343.469543,155.464050 339.498260,160.248657 335.460754,164.976669 
	C331.497650,169.617599 327.467255,174.201050 322.993195,179.354813 
	C318.127533,173.516495 313.532410,168.002777 308.527527,161.997406 
	C313.930939,158.232559 314.811371,150.133530 323.304443,149.943787 
z"/>
<path fill="#C9C1A3" opacity="1.000000" stroke="none" 
	d="
M226.379425,185.041885 
	C226.713913,187.769470 226.713913,190.554291 226.713913,194.756287 
	C224.182419,191.945618 222.340714,190.027573 220.640091,187.991684 
	C210.857071,176.279922 201.184570,164.474136 191.252869,152.890350 
	C189.951492,151.372482 187.447083,150.383484 185.380798,150.133438 
	C181.607422,149.676804 177.744980,149.956375 173.457169,149.856461 
	C177.268005,149.004395 181.516769,147.970047 185.825226,147.554214 
	C187.929626,147.351120 190.145187,148.300034 191.642929,148.595718 
	C194.773132,152.773834 197.492615,156.805679 200.618607,160.492889 
	C207.224594,168.284912 214.197540,175.770126 220.673721,183.665192 
	C222.456360,185.838379 223.813690,186.242371 226.379425,185.041885 
z"/>
<path fill="#C6BFA2" opacity="1.000000" stroke="none" 
	d="
M54.670731,153.047089 
	C58.996723,160.742981 62.997585,168.484009 67.042908,176.581467 
	C66.010880,176.677689 64.279076,176.746353 63.958160,176.106934 
	C60.295231,168.808472 56.841438,161.404846 53.391361,154.001541 
	C53.332066,153.874298 54.011097,153.402969 54.670731,153.047089 
z"/>
<path fill="#C6BFA2" opacity="1.000000" stroke="none" 
	d="
M67.038727,177.363831 
	C71.423317,185.319489 75.786789,193.709747 80.162674,202.462067 
	C79.156166,202.451294 78.137245,202.078445 77.054489,200.975433 
	C74.661713,196.163132 72.332771,192.080994 70.003830,187.998840 
	C69.022545,186.554245 68.041260,185.109665 67.029373,183.332840 
	C67.005058,181.266541 67.011337,179.532471 67.038727,177.363831 
z"/>
<path fill="#C9C1A3" opacity="1.000000" stroke="none" 
	d="
M169.953659,149.440521 
	C162.233047,150.458313 163.154831,148.973236 162.897858,159.558105 
	C162.044281,156.269562 161.256790,152.534317 160.469299,148.799088 
	C160.968140,148.326096 161.466980,147.853119 161.965820,147.380142 
	C164.608871,147.952072 167.251907,148.524017 169.953659,149.440521 
z"/>
<path fill="#F9F7EC" opacity="1.000000" stroke="none" 
	d="
M130.480301,201.345917 
	C129.919296,197.868179 129.383209,194.180267 134.568726,192.990814 
	C133.943375,195.385712 132.938568,197.793182 131.861313,200.549530 
	C131.439102,201.014252 131.089355,201.130081 130.480301,201.345917 
z"/>
<path fill="#FAF9EF" opacity="1.000000" stroke="none" 
	d="
M283.860077,182.432037 
	C285.213196,181.887604 286.668945,181.658005 288.858459,181.312683 
	C288.739380,183.182632 288.632965,184.853333 288.237915,186.773712 
	C286.620392,185.597885 285.291565,184.172394 283.860077,182.432037 
z"/>
<path fill="#C9C1A3" opacity="1.000000" stroke="none" 
	d="
M226.446640,151.099319 
	C226.839417,153.703506 226.867798,156.409973 226.813263,159.560822 
	C223.693939,157.278290 224.728912,154.251663 226.446640,151.099319 
z"/>
<path fill="#C9C1A3" opacity="1.000000" stroke="none" 
	d="
M226.359238,176.982422 
	C226.775772,178.056290 226.827148,179.137756 226.790802,180.617798 
	C225.189285,180.281693 223.675507,179.546982 222.161713,178.812286 
	C222.201462,178.385056 222.241211,177.957840 222.280945,177.530609 
	C223.518661,177.350418 224.756378,177.170227 226.359238,176.982422 
z"/>
<path fill="#FAF9EF" opacity="1.000000" stroke="none" 
	d="
M200.570831,249.045151 
	C203.877686,257.294556 202.778992,263.092865 197.597458,266.496735 
	C190.035400,271.464478 180.814926,267.808441 178.018951,258.371155 
	C178.383667,252.656998 179.674103,247.485580 185.330154,245.696899 
	C190.605911,244.028473 196.060684,244.167847 200.570831,249.045151 
M184.807877,259.537994 
	C188.292389,264.220795 194.149353,264.637665 195.627777,259.986725 
	C196.429367,257.464966 195.785690,253.834229 194.411606,251.526993 
	C193.651581,250.250778 189.702271,249.790558 187.786194,250.522232 
	C184.297623,251.854355 183.522263,255.210388 184.807877,259.537994 
z"/>
<path fill="#F9F7EC" opacity="1.000000" stroke="none" 
	d="
M252.191681,257.997070 
	C251.100296,264.432098 246.724915,267.093842 239.948425,267.946472 
	C237.084885,267.984375 235.041443,268.014709 232.997986,268.045044 
	C232.455078,267.840546 231.912155,267.636047 231.169678,267.216980 
	C230.998795,261.181213 231.247238,255.349701 230.976044,249.542480 
	C230.805954,245.899963 232.189072,245.000977 235.569611,245.048538 
	C241.008804,245.125092 246.255051,245.358948 250.524658,249.965286 
	C250.827850,250.135956 250.869949,250.122513 250.922180,250.509979 
	C251.380157,253.263977 251.785919,255.630524 252.191681,257.997070 
M242.496948,262.298737 
	C246.502167,260.652130 246.884735,257.196808 245.675400,253.969101 
	C244.350739,250.433685 241.134918,249.497910 237.180695,250.539658 
	C237.180695,254.571747 237.180695,258.472839 237.180695,262.891174 
	C238.900497,262.792938 240.322311,262.711761 242.496948,262.298737 
z"/>
<path fill="#FAF9EF" opacity="1.000000" stroke="none" 
	d="
M171.010040,258.621704 
	C170.086319,261.875183 172.871262,265.957092 168.248077,267.654114 
	C163.354492,269.450378 155.370041,268.159180 152.837677,264.895996 
	C149.634445,260.768280 148.911301,256.136658 151.032135,251.278015 
	C151.619202,249.933090 152.677399,248.793793 153.764709,247.327805 
	C158.272278,246.579712 162.532669,245.714035 166.797638,245.690842 
	C169.045059,245.678619 170.711716,247.421722 168.560242,250.527557 
	C166.179794,250.594147 164.254913,250.022720 162.317123,249.974945 
	C158.066589,249.870193 155.982178,252.131943 155.938934,256.386505 
	C155.893188,260.887939 158.158127,263.759766 162.172638,263.632660 
	C163.391205,263.594055 164.573196,262.400635 165.771957,261.736176 
	C165.132187,260.813782 164.509659,259.878784 163.847504,258.972748 
	C163.255280,258.162445 162.619324,257.384094 162.002655,256.591644 
	C162.862747,256.034760 163.665649,255.154922 164.595230,254.990265 
	C166.365295,254.676727 168.207733,254.771637 170.020111,254.696976 
	C170.335632,255.878311 170.651169,257.059631 171.010040,258.621704 
z"/>
<path fill="#C6BFA2" opacity="1.000000" stroke="none" 
	d="
M290.159668,220.907471 
	C293.595001,215.933350 297.404663,210.964554 301.810425,205.218292 
	C306.143311,210.469727 310.299561,214.925552 313.759552,219.868729 
	C317.038177,224.552750 320.853973,226.638794 326.685455,226.174606 
	C333.125793,225.661957 339.638428,226.057526 347.292694,226.057526 
	C343.833740,221.502548 340.901672,217.641403 337.851105,213.456879 
	C339.653503,212.696884 341.221771,211.971451 342.315369,214.945892 
	C343.162750,217.250671 345.991791,218.753418 347.293335,220.989120 
	C348.245850,222.625275 348.740356,225.022202 348.293243,226.790298 
	C348.032776,227.820358 345.539093,228.829926 344.008331,228.897278 
	C338.368164,229.145477 332.620819,228.366409 327.082062,229.155243 
	C320.041931,230.157913 315.965271,226.733093 312.368378,221.659073 
	C309.893799,218.168350 307.494720,214.606339 304.743591,211.344650 
	C304.204315,210.705276 301.730011,210.754288 300.966156,211.421814 
	C298.499603,213.577347 296.490479,216.246399 294.146881,218.557129 
	C293.143677,219.546265 291.750153,220.139603 290.159668,220.907471 
z"/>
<path fill="#C9C1A3" opacity="1.000000" stroke="none" 
	d="
M185.750916,198.886597 
	C185.408676,191.943085 185.408676,184.862167 185.408676,177.781265 
	C185.711197,177.547119 186.013702,177.312988 186.316223,177.078857 
	C196.846527,189.825287 207.376816,202.571701 217.965195,215.656326 
	C215.441132,214.442551 212.426361,213.316208 210.380463,211.236664 
	C207.470200,208.278564 205.645508,204.232712 202.670700,201.363052 
	C199.279922,198.092072 196.593796,193.816635 191.500153,192.452179 
	C190.305756,192.132217 189.545090,190.193100 187.917587,188.169006 
	C187.199860,192.331223 186.646500,195.540207 185.750916,198.886597 
z"/>
<path fill="#F7F4EB" opacity="1.000000" stroke="none" 
	d="
M216.092834,249.602661 
	C216.123062,250.767593 216.090317,251.528351 216.047424,253.029160 
	C216.072556,254.497528 216.107803,255.225830 216.143066,255.954132 
	C215.928757,261.433228 215.928757,261.433228 223.553635,262.903259 
	C224.619019,266.212555 224.155838,268.152161 219.898819,267.992249 
	C208.345062,267.558228 210.303375,269.759521 210.081161,258.406952 
	C210.036606,256.131042 209.110275,253.832458 209.296616,251.603363 
	C209.478989,249.421600 210.562881,247.315201 211.626831,245.105499 
	C215.136978,244.689514 216.405777,246.148483 216.092834,249.602661 
z"/>
<path fill="#C4BEA1" opacity="1.000000" stroke="none" 
	d="
M169.964432,254.372208 
	C168.207733,254.771637 166.365295,254.676727 164.595230,254.990265 
	C163.665649,255.154922 162.862747,256.034760 162.002655,256.591644 
	C162.619324,257.384094 163.255280,258.162445 163.847504,258.972748 
	C164.509659,259.878784 165.132187,260.813782 165.771957,261.736176 
	C164.573196,262.400635 163.391205,263.594055 162.172638,263.632660 
	C158.158127,263.759766 155.893188,260.887939 155.938934,256.386505 
	C155.982178,252.131943 158.066589,249.870193 162.317123,249.974945 
	C164.254913,250.022720 166.179794,250.594147 168.513336,250.879211 
	C169.246994,251.902710 169.577866,252.975082 169.964432,254.372208 
z"/>
<path fill="#C7BD9A" opacity="1.000000" stroke="none" 
	d="
M70.002380,188.417816 
	C72.332771,192.080994 74.661713,196.163132 76.996094,200.621277 
	C75.469444,201.108185 73.925026,201.134079 72.408783,201.354156 
	C70.924988,201.569534 69.469910,201.982819 68.002228,202.309235 
	C67.893829,200.442474 67.444679,198.516373 67.757065,196.722900 
	C68.223442,194.045151 69.226303,191.460846 70.002380,188.417816 
z"/>
<path fill="#C1B791" opacity="1.000000" stroke="none" 
	d="
M250.811005,250.151123 
	C250.420502,247.595535 250.404922,244.903137 249.583359,242.484512 
	C248.535004,239.398270 250.156311,238.527603 252.475479,238.119492 
	C255.154175,237.648117 257.297546,238.515167 256.918854,241.672516 
	C256.612701,244.225342 255.672287,246.702118 254.594788,249.606476 
	C253.074219,250.041061 251.972092,250.081787 250.869949,250.122513 
	C250.869949,250.122513 250.827850,250.135956 250.811005,250.151123 
z"/>
<path fill="#C6BFA2" opacity="1.000000" stroke="none" 
	d="
M94.002800,226.679688 
	C100.349007,226.233765 106.726837,226.176819 113.568466,226.216797 
	C113.300743,227.200928 112.599388,228.825378 111.832878,228.856720 
	C106.539192,229.073196 101.230034,229.021805 95.931465,228.865707 
	C95.282036,228.846573 94.665955,227.695312 94.002800,226.679688 
z"/>
<path fill="#C7BD9A" opacity="1.000000" stroke="none" 
	d="
M267.244873,191.842010 
	C267.626190,193.816177 268.472656,196.185043 267.655212,197.162827 
	C266.351135,198.722626 263.940247,199.357117 261.406647,199.624146 
	C263.045715,196.576355 261.032837,191.296448 267.244873,191.842010 
z"/>
<path fill="#C7BD9A" opacity="1.000000" stroke="none" 
	d="
M336.087982,210.759552 
	C333.929993,208.647263 331.909698,206.223389 329.765076,203.476288 
	C330.761230,202.268158 331.912292,201.418716 332.992401,200.486954 
	C333.842621,199.753479 334.605316,198.918488 335.406891,198.128571 
	C335.921173,199.191376 336.869965,200.255234 336.867371,201.316757 
	C336.859924,204.360992 336.467041,207.404297 336.087982,210.759552 
z"/>
<path fill="#C6BFA2" opacity="1.000000" stroke="none" 
	d="
M80.100006,203.302368 
	C83.062836,208.025742 85.976746,213.158340 88.908127,218.650116 
	C87.977417,218.800949 86.415321,218.869537 86.176880,218.340988 
	C84.003723,213.523727 82.061081,208.602463 80.100006,203.302368 
z"/>
<path fill="#C7BD9A" opacity="1.000000" stroke="none" 
	d="
M272.441650,205.989914 
	C270.416840,208.888290 268.005615,211.789246 265.291962,214.829880 
	C265.437073,209.235260 267.649323,206.424591 272.441650,205.989914 
z"/>
<path fill="#C7BD9A" opacity="1.000000" stroke="none" 
	d="
M121.950333,208.063690 
	C122.266693,207.824829 122.660477,207.886749 122.937622,208.251373 
	C123.810181,209.750259 124.405594,210.884537 125.001022,212.018799 
	C124.425621,213.426010 123.850227,214.833221 123.274834,216.240433 
	C122.859634,216.183578 122.444435,216.126709 122.029236,216.069855 
	C121.897484,213.480759 121.765724,210.891647 121.950333,208.063690 
z"/>
<path fill="#C7BD9A" opacity="1.000000" stroke="none" 
	d="
M127.893341,206.984085 
	C128.578522,205.848938 129.263687,204.713776 130.107880,203.282120 
	C131.130280,203.469818 131.993683,203.954010 132.857071,204.438217 
	C131.390549,205.925751 129.924026,207.413269 128.151978,208.580414 
	C127.862083,207.834732 127.877716,207.409409 127.893341,206.984085 
z"/>
<path fill="#F9F7EC" opacity="1.000000" stroke="none" 
	d="
M127.536980,206.993073 
	C127.877716,207.409409 127.862083,207.834732 127.781754,208.572540 
	C126.975609,209.811859 126.234154,210.738678 125.246857,211.842163 
	C124.405594,210.884537 123.810181,209.750259 123.131592,208.297180 
	C124.425819,207.652924 125.803223,207.327484 127.536980,206.993073 
z"/>
<path fill="#C6BFA2" opacity="1.000000" stroke="none" 
	d="
M116.181068,220.827515 
	C114.908226,219.285263 113.923271,217.523468 112.877457,215.420837 
	C116.078484,215.571869 117.691681,217.153046 116.181068,220.827515 
z"/>
<path fill="#C6BFA2" opacity="1.000000" stroke="none" 
	d="
M112.079193,212.897980 
	C111.486900,212.307129 111.185966,211.527222 110.879639,210.420776 
	C111.373024,210.965805 111.871796,211.837357 112.079193,212.897980 
z"/>
<path fill="#C7BD9A" opacity="1.000000" stroke="none" 
	d="
M275.075714,202.166534 
	C274.875580,203.085281 274.271393,203.983749 273.386536,205.057999 
	C273.627808,204.204605 274.149750,203.175446 275.075714,202.166534 
z"/>
<path fill="#C9C1A3" opacity="1.000000" stroke="none" 
	d="
M194.464630,200.609802 
	C194.348907,201.058258 194.066452,201.333176 193.766083,201.586838 
	C193.758392,201.593338 193.553894,201.366760 193.441208,201.248886 
	C193.725998,200.977081 194.010788,200.705276 194.464630,200.609802 
z"/>
<path fill="#C9C1A3" opacity="1.000000" stroke="none" 
	d="
M178.029648,226.512619 
	C178.431946,226.193817 178.889114,226.142151 179.685501,226.165497 
	C179.377975,226.420273 178.731262,226.600021 178.029648,226.512619 
z"/>
<path fill="#C9C1A3" opacity="1.000000" stroke="none" 
	d="
M162.662415,225.206970 
	C163.142578,225.273773 163.424927,225.495544 163.811310,225.970947 
	C163.431747,225.937042 162.948166,225.649490 162.662415,225.206970 
z"/>
<path fill="#C6BFA2" opacity="1.000000" stroke="none" 
	d="
M117.412766,225.913605 
	C117.305527,226.006699 117.267944,225.539780 117.341423,225.318268 
	C117.667885,225.315231 117.702919,225.556503 117.412766,225.913605 
z"/>
<path fill="#C3BA94" opacity="1.000000" stroke="none" 
	d="
M250.922180,250.509979 
	C251.972092,250.081787 253.074219,250.041061 254.588196,250.000168 
	C254.293304,252.609787 253.586594,255.219559 252.535797,257.913208 
	C251.785919,255.630524 251.380157,253.263977 250.922180,250.509979 
z"/>
<path fill="#C3BA94" opacity="1.000000" stroke="none" 
	d="
M233.011566,268.434448 
	C235.041443,268.014709 237.084885,267.984375 239.564484,267.996216 
	C237.900131,271.914948 235.511734,272.183899 233.011566,268.434448 
z"/>
<path fill="#C3BA94" opacity="1.000000" stroke="none" 
	d="
M216.363754,255.767303 
	C216.107803,255.225830 216.072556,254.497528 216.092072,253.408157 
	C216.292694,253.891556 216.438568,254.736023 216.363754,255.767303 
z"/>
<path fill="#CBC19D" opacity="1.000000" stroke="none" 
	d="
M194.793945,48.999413 
	C191.960541,48.857834 189.575363,48.715824 187.190170,48.573814 
	C187.209442,47.960148 187.228714,47.346481 187.247986,46.732815 
	C191.064499,46.732815 194.881012,46.732815 198.697510,46.732815 
	C198.767349,47.225601 198.837173,47.718384 198.906998,48.211170 
	C197.685379,48.473774 196.463760,48.736378 194.793945,48.999413 
z"/>
<path fill="#CBC19D" opacity="1.000000" stroke="none" 
	d="
M149.721924,48.814548 
	C148.676819,48.309128 147.987686,47.708782 147.298538,47.108437 
	C148.095734,46.799908 148.892929,46.491375 149.690125,46.182846 
	C149.819366,47.028435 149.948624,47.874027 149.721924,48.814548 
z"/>
<path fill="#C1BC9D" opacity="1.000000" stroke="none" 
	d="
M184.649017,259.176056 
	C183.522263,255.210388 184.297623,251.854355 187.786194,250.522232 
	C189.702271,249.790558 193.651581,250.250778 194.411606,251.526993 
	C195.785690,253.834229 196.429367,257.464966 195.627777,259.986725 
	C194.149353,264.637665 188.292389,264.220795 184.649017,259.176056 
z"/>
<path fill="#C1BC9D" opacity="1.000000" stroke="none" 
	d="
M242.120544,262.464661 
	C240.322311,262.711761 238.900497,262.792938 237.180695,262.891174 
	C237.180695,258.472839 237.180695,254.571747 237.180695,250.539658 
	C241.134918,249.497910 244.350739,250.433685 245.675400,253.969101 
	C246.884735,257.196808 246.502167,260.652130 242.120544,262.464661 
z"/>
</svg>